<svg width="33" height="32" viewBox="0 0 33 32" fill="none" xmlns="http://www.w3.org/2000/svg">
<path fill-rule="evenodd" clip-rule="evenodd" d="M7.03607 0.112731C5.00628 0.330924 3.66593 0.976457 2.37047 2.35976C1.87496 2.88899 1.68814 3.1613 1.35565 3.8392C0.864099 4.84158 0.678178 5.5801 0.563259 6.98725C0.446021 8.42318 0.505352 25.1603 0.630222 25.8614C0.808885 26.8646 0.960315 27.342 1.3561 28.1498C1.68844 28.8283 1.87451 29.0996 2.37047 29.6293C3.69242 31.0408 4.9869 31.6511 7.1483 31.8815C8.6299 32.0395 24.371 32.0395 25.8526 31.8815C27.8481 31.6687 29.0731 31.1435 30.2939 29.9772C31.6559 28.676 32.235 27.3305 32.4376 24.9974C32.5537 23.6588 32.4941 6.82049 32.3707 6.12764C32.192 5.12436 32.0406 4.64701 31.6448 3.8392C31.3125 3.16077 31.1264 2.88944 30.6304 2.35976C29.3079 0.947604 27.9961 0.328831 25.8526 0.106228C24.452 -0.0392335 8.39849 -0.0336274 7.03607 0.112731ZM13.4522 7.59138L13.7696 8.23295L14.0689 8.18511C15.2333 7.99898 17.6982 7.99936 18.95 8.18578L19.2313 8.22764L19.44 7.75695C19.5549 7.49809 19.7064 7.21195 19.7767 7.12113L19.9046 6.95593L20.7279 7.13115C21.7656 7.35196 22.4549 7.55086 23.4959 7.92991C24.7745 8.39553 24.7939 8.40853 25.2629 9.1176C27.528 12.5421 28.6932 16.6717 28.5106 20.629C28.4831 21.2251 28.4443 21.7811 28.4245 21.8646C28.3568 22.1491 26.3144 23.399 24.8393 24.0588C23.9493 24.4567 22.5488 24.9652 22.3476 24.9632C22.1937 24.9618 20.9085 23.0022 21.0009 22.9098C21.0172 22.8935 21.316 22.7584 21.6647 22.6097C22.0134 22.4608 22.4479 22.2521 22.6301 22.1458L22.9616 21.9524L22.7647 21.7833L22.568 21.6142L21.8348 21.9015C20.8571 22.2847 19.937 22.5465 18.8946 22.738C17.6638 22.9641 15.3371 22.9641 14.1063 22.738C12.9087 22.5179 11.8314 22.1921 10.5151 21.6517C10.4514 21.6255 10.3076 21.6834 10.1828 21.7856L9.96269 21.9655L10.6317 22.2908C10.9996 22.4697 11.4438 22.6732 11.6186 22.7432C11.7935 22.8131 11.9366 22.916 11.9366 22.9719C11.9366 23.0822 11.2977 24.1581 10.9118 24.6979L10.6726 25.0324L10.0514 24.8204C9.03758 24.4745 8.29158 24.1582 7.29553 23.6523C6.08327 23.0364 4.6289 22.0837 4.57773 21.872C4.47523 21.4478 4.44545 19.5228 4.52565 18.5053C4.7953 15.0863 5.82755 12.0635 7.73666 9.10213L8.15623 8.45129L8.90545 8.15693C10.1546 7.66613 12.325 7.04167 13.0781 6.95631C13.1093 6.9528 13.2776 7.23856 13.4522 7.59138ZM11.7393 14.7141C10.5823 15.2537 10.0775 16.7058 10.6247 17.9202C11.0127 18.7813 11.7352 19.2471 12.6011 19.1943C13.4121 19.1449 13.9811 18.7611 14.3876 17.9893C14.5688 17.6455 14.5918 17.5213 14.5911 16.8915C14.5904 16.2905 14.5622 16.1244 14.4076 15.8108C14.1863 15.3622 13.7935 14.956 13.3931 14.7618C12.9602 14.5519 12.1379 14.5282 11.7393 14.7141ZM19.8027 14.6699C19.4191 14.7924 18.7915 15.4085 18.588 15.8622C18.339 16.4173 18.3358 17.3655 18.581 17.9006C19.2454 19.3502 20.9998 19.658 22.017 18.5035C22.4221 18.0438 22.5968 17.532 22.5928 16.8168C22.5891 16.1545 22.4255 15.7283 21.9893 15.2449C21.4559 14.6537 20.5769 14.4226 19.8027 14.6699Z" fill="white"/>
</svg>
