<svg width="33" height="32" viewBox="0 0 33 32" fill="none" xmlns="http://www.w3.org/2000/svg">
<path d="M16.4957 10.6645C13.5578 10.6645 11.1602 13.0621 11.1602 16C11.1602 18.9379 13.5578 21.3355 16.4957 21.3355C19.4336 21.3355 21.8312 18.9379 21.8312 16C21.8312 13.0621 19.4336 10.6645 16.4957 10.6645ZM32.4982 16C32.4982 13.7906 32.5182 11.6011 32.3941 9.39567C32.2701 6.83398 31.6857 4.56049 29.8125 2.68726C27.9352 0.810027 25.6657 0.229646 23.104 0.105564C20.8946 -0.0185175 18.7052 0.00149573 16.4997 0.00149573C14.2902 0.00149573 12.1008 -0.0185175 9.89536 0.105564C7.33368 0.229646 5.06019 0.814029 3.18696 2.68726C1.30972 4.56449 0.72934 6.83398 0.605259 9.39567C0.481177 11.6051 0.501191 13.7946 0.501191 16C0.501191 18.2055 0.481177 20.3989 0.605259 22.6043C0.72934 25.166 1.31372 27.4395 3.18696 29.3128C5.06419 31.19 7.33368 31.7704 9.89536 31.8944C12.1048 32.0185 14.2943 31.9985 16.4997 31.9985C18.7092 31.9985 20.8986 32.0185 23.104 31.8944C25.6657 31.7704 27.9392 31.186 29.8125 29.3128C31.6897 27.4355 32.2701 25.166 32.3941 22.6043C32.5222 20.3989 32.4982 18.2095 32.4982 16ZM16.4957 24.2094C11.9527 24.2094 8.28631 20.543 8.28631 16C8.28631 11.457 11.9527 7.79061 16.4957 7.79061C21.0387 7.79061 24.7051 11.457 24.7051 16C24.7051 20.543 21.0387 24.2094 16.4957 24.2094ZM25.0413 9.37165C23.9806 9.37165 23.1241 8.51509 23.1241 7.45439C23.1241 6.3937 23.9806 5.53713 25.0413 5.53713C26.102 5.53713 26.9586 6.3937 26.9586 7.45439C26.9589 7.70626 26.9095 7.95571 26.8133 8.18847C26.717 8.42123 26.5758 8.63271 26.3977 8.81081C26.2196 8.9889 26.0082 9.13011 25.7754 9.22635C25.5426 9.32259 25.2932 9.37197 25.0413 9.37165Z" fill="white"/>
</svg>
