<svg width="24" height="16" viewBox="0 0 24 16" fill="none" xmlns="http://www.w3.org/2000/svg">
<path d="M23.1853 7.69625C23.1525 7.62219 22.3584 5.86062 20.5931 4.09531C18.2409 1.74312 15.27 0.5 12 0.5C8.72999 0.5 5.75905 1.74312 3.40687 4.09531C1.64155 5.86062 0.843741 7.625 0.814679 7.69625C0.772035 7.79217 0.75 7.89597 0.75 8.00094C0.75 8.10591 0.772035 8.20971 0.814679 8.30562C0.847491 8.37969 1.64155 10.1403 3.40687 11.9056C5.75905 14.2569 8.72999 15.5 12 15.5C15.27 15.5 18.2409 14.2569 20.5931 11.9056C22.3584 10.1403 23.1525 8.37969 23.1853 8.30562C23.2279 8.20971 23.25 8.10591 23.25 8.00094C23.25 7.89597 23.2279 7.79217 23.1853 7.69625ZM12 14C9.11437 14 6.59343 12.9509 4.50655 10.8828C3.65028 10.0313 2.92179 9.06027 2.34374 8C2.92164 6.93963 3.65014 5.9686 4.50655 5.11719C6.59343 3.04906 9.11437 2 12 2C14.8856 2 17.4066 3.04906 19.4934 5.11719C20.3514 5.9684 21.0815 6.93942 21.6609 8C20.985 9.26188 18.0403 14 12 14ZM12 3.5C11.11 3.5 10.2399 3.76392 9.49993 4.25839C8.7599 4.75285 8.18313 5.45566 7.84253 6.27792C7.50194 7.10019 7.41282 8.00499 7.58646 8.87791C7.76009 9.75082 8.18867 10.5526 8.81801 11.182C9.44735 11.8113 10.2492 12.2399 11.1221 12.4135C11.995 12.5872 12.8998 12.4981 13.7221 12.1575C14.5443 11.8169 15.2471 11.2401 15.7416 10.5001C16.2361 9.76005 16.5 8.89002 16.5 8C16.4988 6.80691 16.0242 5.66303 15.1806 4.81939C14.337 3.97575 13.1931 3.50124 12 3.5ZM12 11C11.4066 11 10.8266 10.8241 10.3333 10.4944C9.83993 10.1648 9.45542 9.69623 9.22835 9.14805C9.00129 8.59987 8.94188 7.99667 9.05764 7.41473C9.17339 6.83279 9.45911 6.29824 9.87867 5.87868C10.2982 5.45912 10.8328 5.1734 11.4147 5.05764C11.9967 4.94189 12.5999 5.0013 13.148 5.22836C13.6962 5.45542 14.1648 5.83994 14.4944 6.33329C14.824 6.82664 15 7.40666 15 8C15 8.79565 14.6839 9.55871 14.1213 10.1213C13.5587 10.6839 12.7956 11 12 11Z" fill="white"/>
</svg>
