<svg xmlns="http://www.w3.org/2000/svg" aria-hidden="true" style="position:absolute;width:0;height:0;overflow:hidden">
  <defs>
    <symbol id="discord_icon" viewBox="0 0 33 32">
      <path fill="#fff" d="M7.036.113C5.006.331 3.666.977 2.37 2.36c-.496.529-.682.802-1.015 1.479C.863 4.841.678 5.58.563 6.987.446 8.423.505 25.16.63 25.861c.179 1.003.33 1.481.726 2.288.332.678.518.95 1.014 1.48 1.322 1.412 2.616 2.022 4.778 2.252 1.482.158 17.223.158 18.704 0 1.995-.213 3.221-.738 4.441-1.904 1.362-1.301 1.941-2.647 2.144-4.98.116-1.339.056-18.177-.067-18.87-.179-1.003-.33-1.481-.726-2.288-.332-.678-.518-.95-1.014-1.479C29.307.948 27.996.329 25.852.106 24.451-.039 8.398-.034 7.035.113zm6.416 7.478.317.642.299-.048c1.164-.186 3.629-.186 4.881.001l.281.042.209-.471c.115-.259.266-.545.337-.636l.128-.165.823.175c1.038.221 1.727.42 2.768.799 1.279.466 1.298.479 1.767 1.188 2.265 3.425 3.43 7.554 3.248 11.511-.027.596-.066 1.152-.086 1.236-.068.285-2.11 1.534-3.585 2.194-.89.398-2.291.906-2.492.904-.154-.001-1.439-1.961-1.347-2.053.016-.016.315-.151.664-.3s.783-.358.965-.464l.331-.193-.394-.338-.733.287c-.978.383-1.898.645-2.94.837-1.231.226-3.558.226-4.788 0-1.198-.22-2.275-.546-3.591-1.086-.064-.026-.207.032-.332.134l-.22.18.669.325c.368.179.812.382.987.452s.318.173.318.229c0 .11-.639 1.186-1.025 1.726l-.239.334-.621-.212a19.377 19.377 0 0 1-2.756-1.168c-1.212-.616-2.667-1.569-2.718-1.78-.103-.424-.132-2.349-.052-3.367.27-3.419 1.302-6.442 3.211-9.403l.42-.651.749-.294c1.249-.491 3.42-1.115 4.173-1.201.031-.003.2.282.374.635zm-1.713 7.123c-1.157.54-1.662 1.992-1.115 3.206.388.861 1.111 1.327 1.976 1.274.811-.049 1.38-.433 1.787-1.205.181-.344.204-.468.204-1.098-.001-.601-.029-.767-.184-1.081-.221-.449-.614-.855-1.014-1.049-.433-.21-1.255-.234-1.654-.048zm8.064-.044c-.384.123-1.011.739-1.215 1.192-.249.555-.252 1.503-.007 2.038.664 1.45 2.419 1.757 3.436.603.405-.46.58-.971.576-1.687-.004-.662-.167-1.088-.604-1.572-.533-.591-1.412-.822-2.187-.575z" style="fill:var(--color1, #fff)"/>
    </symbol>
    <symbol id="facebook_icon" viewBox="0 0 33 32">
      <path fill="#fff" d="M.5 16.089C.5 24.044 6.277 30.658 13.833 32V20.444h-4V16h4v-3.556c0-4 2.577-6.221 6.223-6.221 1.155 0 2.4.177 3.555.355v4.089h-2.044c-1.956 0-2.4.977-2.4 2.223v3.111h4.267l-.711 4.444h-3.556v11.556C26.723 30.66 32.5 24.046 32.5 16.09c0-8.849-7.2-16.089-16-16.089S.5 7.241.5 16.09z" style="fill:var(--color1, #fff)"/>
    </symbol>
    <symbol id="insta_icon" viewBox="0 0 33 32">
      <path fill="#fff" d="M16.496 10.665c-2.938 0-5.335 2.398-5.335 5.335s2.398 5.335 5.335 5.335c2.938 0 5.335-2.398 5.335-5.335s-2.398-5.335-5.335-5.335zM32.498 16c0-2.209.02-4.399-.104-6.604-.124-2.562-.708-4.835-2.582-6.708C27.935.811 25.665.23 23.103.106c-2.209-.124-4.399-.104-6.604-.104-2.21 0-4.399-.02-6.604.104C7.333.23 5.06.814 3.187 2.688 1.31 4.565.729 6.835.605 9.396.481 11.605.501 13.795.501 16s-.02 4.399.104 6.604c.124 2.562.708 4.835 2.582 6.709 1.877 1.877 4.147 2.458 6.708 2.582 2.209.124 4.399.104 6.604.104 2.209 0 4.399.02 6.604-.104 2.562-.124 4.835-.708 6.709-2.582 1.877-1.877 2.458-4.147 2.582-6.709.128-2.205.104-4.395.104-6.604zm-16.002 8.209c-4.543 0-8.209-3.666-8.209-8.209s3.666-8.209 8.209-8.209c4.543 0 8.209 3.666 8.209 8.209s-3.666 8.209-8.209 8.209zm8.545-14.837c-1.061 0-1.917-.857-1.917-1.917s.857-1.917 1.917-1.917a1.915 1.915 0 0 1 1.772 2.651 1.909 1.909 0 0 1-1.038 1.038 1.906 1.906 0 0 1-.734.145z" style="fill:var(--color1, #fff)"/>
    </symbol>
    <symbol id="logo" viewBox="0 0 56 32">
      <path fill="#fff" d="M5.451 31.2a5.43 5.43 0 0 1-2.766-.729c-.814-.513-1.464-1.175-1.953-1.986S0 26.77 0 25.77V13.128c0-1 .244-1.904.732-2.715s1.139-1.459 1.953-1.945a5.212 5.212 0 0 1 2.766-.77h13.708V-.001H24v31.2H5.451zm.203-4.822h12.732a.718.718 0 0 0 .529-.203.774.774 0 0 0 .244-.567V13.29a.652.652 0 0 0-.244-.527.658.658 0 0 0-.529-.243H5.654a.78.78 0 0 0-.569.243.71.71 0 0 0-.203.527v12.318a.86.86 0 0 0 .203.567.866.866 0 0 0 .569.203zM55.2 28.089 45.422 19.2l9.778-8.889L51.778 7.2 42 16.089 32.222 7.2 28.8 10.311l9.778 8.889-9.778 8.889 3.422 3.111L42 22.311l9.778 8.889 3.422-3.111z" style="fill:var(--color1, #fff)"/>
    </symbol>
    <symbol id="telegram_icon" viewBox="0 0 33 32">
      <path fill="#fff" d="M14.979.039C9.972.56 5.583 3.284 2.917 7.528-.864 13.547-.15 21.537 4.633 26.744c2.659 2.893 5.951 4.614 9.906 5.178.744.106 3.202.104 3.974-.003 3.895-.54 7.185-2.257 9.839-5.135 2.182-2.367 3.582-5.399 4.067-8.807.105-.737.105-3.209 0-3.945-.442-3.103-1.642-5.909-3.484-8.141C26.32 2.722 22.787.724 18.732.124c-.768-.114-2.99-.163-3.755-.084zm8.671 9.799c.366.351.37.591.055 2.941-.281 2.092-1.255 7.988-1.598 9.675-.127.626-.369 1.15-.638 1.387-.213.187-.236.193-.695.165-.324-.019-.561-.073-.747-.169-.425-.218-5.269-3.503-5.54-3.756-.293-.274-.432-.572-.376-.806.078-.326.465-.754 1.853-2.051 1.704-1.592 3.518-3.364 3.651-3.567.131-.2.028-.409-.203-.409-.21 0-.074-.086-3.901 2.465-1.807 1.204-3.441 2.267-3.63 2.361-.564.279-.963.334-1.618.22-.551-.095-2.259-.584-2.967-.85-.747-.28-.939-.658-.531-1.046.265-.252.305-.271 3.119-1.494 7.545-3.278 11.349-4.847 12.6-5.197.493-.138.939-.088 1.167.13z" style="fill:var(--color1, #fff)"/>
    </symbol>
    <symbol id="search" viewBox="0 0 32 32">
      <path d="m31.008 27.231-7.58-6.447c-.784-.705-1.622-1.029-2.299-.998a11.954 11.954 0 0 0 2.87-7.787c0-6.627-5.373-12-12-12s-12 5.373-12 12 5.373 12 12 12c2.972 0 5.691-1.081 7.787-2.87-.031.677.293 1.515.998 2.299l6.447 7.58c1.104 1.226 2.907 1.33 4.007.23s.997-2.903-.23-4.007zM12 20a8 8 0 1 1 0-16 8 8 0 0 1 0 16z"/>
    </symbol>
    <symbol id="arrow_icon" viewBox="0 0 32 32">
    <path fill="none" stroke="#fff" style="stroke: var(--color5, #fff)" stroke-linejoin="round" stroke-linecap="round" stroke-miterlimit="4" stroke-width="2.8235" d="M14.995 25.726l16.177-16.314M31.172 9.412v15.661M31.172 9.412h-15.529"></path>
    </symbol>
      
  </defs>
</svg>
