<svg width="33" height="32" viewBox="0 0 33 32" fill="none" xmlns="http://www.w3.org/2000/svg">
<path fill-rule="evenodd" clip-rule="evenodd" d="M14.9795 0.0388521C9.97214 0.559498 5.58371 3.28434 2.91785 7.52817C-0.862908 13.5468 -0.149141 21.5376 4.63429 26.7438C7.29289 29.6373 10.5854 31.3582 14.5406 31.9216C15.2841 32.0275 17.743 32.0257 18.5151 31.9188C22.4104 31.3793 25.7002 29.6622 28.3543 26.7834C30.5364 24.4165 31.9365 21.3848 32.4214 17.9764C32.5262 17.2397 32.5262 14.7679 32.4214 14.0312C31.9799 10.9281 30.7793 8.12258 28.9376 5.8902C26.3227 2.72074 22.7894 0.72357 18.7341 0.122767C17.9663 0.00898105 15.7442 -0.0406162 14.9795 0.0388521ZM23.6497 9.8377C24.0158 10.1886 24.0202 10.4287 23.7044 12.7787C23.4234 14.8704 22.4494 20.7663 22.1062 22.4539C21.9789 23.0795 21.7376 23.604 21.4681 23.8408C21.2549 24.028 21.2322 24.0335 20.7733 24.006C20.4492 23.9866 20.2125 23.9332 20.0265 23.8375C19.6019 23.619 14.7577 20.3345 14.4864 20.0811C14.1932 19.8072 14.0541 19.5093 14.1103 19.2753C14.1886 18.9489 14.5754 18.5209 15.9635 17.2245C17.6677 15.6328 19.4816 13.8608 19.6147 13.6577C19.7457 13.4575 19.6423 13.2484 19.4121 13.2484C19.2022 13.2484 19.3379 13.1626 15.5108 15.7135C13.7035 16.918 12.0699 17.9803 11.8806 18.074C11.3163 18.3533 10.9176 18.4076 10.2621 18.2943C9.71096 18.1992 8.00265 17.7099 7.29496 17.4445C6.54771 17.1643 6.35593 16.7865 6.76395 16.3986C7.02933 16.1462 7.06876 16.1273 9.88252 14.9049C17.4279 11.6269 21.2315 10.0579 22.4825 9.7075C22.9753 9.56948 23.4219 9.61927 23.6497 9.8377Z" fill="white"/>
</svg>
