<!-- Generated by IcoMoon.io -->
<svg version="1.1" xmlns="http://www.w3.org/2000/svg" width="33" height="32" viewBox="0 0 33 32">
<title>discord_icon</title>
<path fill="#fff" d="M7.036 0.113c-2.030 0.218-3.37 0.864-4.666 2.247-0.496 0.529-0.682 0.802-1.015 1.479-0.492 1.002-0.677 1.741-0.792 3.148-0.117 1.436-0.058 18.173 0.067 18.874 0.179 1.003 0.33 1.481 0.726 2.288 0.332 0.678 0.518 0.95 1.014 1.48 1.322 1.412 2.616 2.022 4.778 2.252 1.482 0.158 17.223 0.158 18.704 0 1.995-0.213 3.221-0.738 4.441-1.904 1.362-1.301 1.941-2.647 2.144-4.98 0.116-1.339 0.056-18.177-0.067-18.87-0.179-1.003-0.33-1.481-0.726-2.288-0.332-0.678-0.518-0.95-1.014-1.479-1.323-1.412-2.634-2.031-4.778-2.254-1.401-0.145-17.454-0.14-18.817 0.007zM13.452 7.591l0.317 0.642 0.299-0.048c1.164-0.186 3.629-0.186 4.881 0.001l0.281 0.042 0.209-0.471c0.115-0.259 0.266-0.545 0.337-0.636l0.128-0.165 0.823 0.175c1.038 0.221 1.727 0.42 2.768 0.799 1.279 0.466 1.298 0.479 1.767 1.188 2.265 3.425 3.43 7.554 3.248 11.511-0.027 0.596-0.066 1.152-0.086 1.236-0.068 0.285-2.11 1.534-3.585 2.194-0.89 0.398-2.291 0.906-2.492 0.904-0.154-0.001-1.439-1.961-1.347-2.053 0.016-0.016 0.315-0.151 0.664-0.3s0.783-0.358 0.965-0.464l0.331-0.193-0.394-0.338-0.733 0.287c-0.978 0.383-1.898 0.645-2.94 0.837-1.231 0.226-3.558 0.226-4.788 0-1.198-0.22-2.275-0.546-3.591-1.086-0.064-0.026-0.207 0.032-0.332 0.134l-0.22 0.18 0.669 0.325c0.368 0.179 0.812 0.382 0.987 0.452s0.318 0.173 0.318 0.229c0 0.11-0.639 1.186-1.025 1.726l-0.239 0.334-0.621-0.212c-1.014-0.346-1.76-0.662-2.756-1.168-1.212-0.616-2.667-1.569-2.718-1.78-0.103-0.424-0.132-2.349-0.052-3.367 0.27-3.419 1.302-6.442 3.211-9.403l0.42-0.651 0.749-0.294c1.249-0.491 3.42-1.115 4.173-1.201 0.031-0.003 0.2 0.282 0.374 0.635zM11.739 14.714c-1.157 0.54-1.662 1.992-1.115 3.206 0.388 0.861 1.111 1.327 1.976 1.274 0.811-0.049 1.38-0.433 1.787-1.205 0.181-0.344 0.204-0.468 0.204-1.098-0.001-0.601-0.029-0.767-0.184-1.081-0.221-0.449-0.614-0.855-1.014-1.049-0.433-0.21-1.255-0.234-1.654-0.048zM19.803 14.67c-0.384 0.123-1.011 0.739-1.215 1.192-0.249 0.555-0.252 1.503-0.007 2.038 0.664 1.45 2.419 1.757 3.436 0.603 0.405-0.46 0.58-0.971 0.576-1.687-0.004-0.662-0.167-1.088-0.604-1.572-0.533-0.591-1.412-0.822-2.187-0.575z"></path>
</svg>
