<!-- Generated by IcoMoon.io -->
<svg version="1.1" xmlns="http://www.w3.org/2000/svg" width="33" height="32" viewBox="0 0 33 32">
<title>insta_icon</title>
<path fill="#fff" d="M16.496 10.665c-2.938 0-5.335 2.398-5.335 5.335s2.398 5.335 5.335 5.335c2.938 0 5.335-2.398 5.335-5.335s-2.398-5.335-5.335-5.335zM32.498 16c0-2.209 0.020-4.399-0.104-6.604-0.124-2.562-0.708-4.835-2.582-6.708-1.877-1.877-4.147-2.458-6.709-2.582-2.209-0.124-4.399-0.104-6.604-0.104-2.21 0-4.399-0.020-6.604 0.104-2.562 0.124-4.835 0.708-6.708 2.582-1.877 1.877-2.458 4.147-2.582 6.708-0.124 2.209-0.104 4.399-0.104 6.604s-0.020 4.399 0.104 6.604c0.124 2.562 0.708 4.835 2.582 6.709 1.877 1.877 4.147 2.458 6.708 2.582 2.209 0.124 4.399 0.104 6.604 0.104 2.209 0 4.399 0.020 6.604-0.104 2.562-0.124 4.835-0.708 6.709-2.582 1.877-1.877 2.458-4.147 2.582-6.709 0.128-2.205 0.104-4.395 0.104-6.604zM16.496 24.209c-4.543 0-8.209-3.666-8.209-8.209s3.666-8.209 8.209-8.209c4.543 0 8.209 3.666 8.209 8.209s-3.666 8.209-8.209 8.209zM25.041 9.372c-1.061 0-1.917-0.857-1.917-1.917s0.857-1.917 1.917-1.917c1.061 0 1.917 0.857 1.917 1.917 0 0.252-0.049 0.501-0.145 0.734s-0.238 0.444-0.416 0.622-0.39 0.319-0.622 0.416c-0.233 0.096-0.482 0.146-0.734 0.145z"></path>
</svg>
