<!-- Generated by IcoMoon.io -->
<svg version="1.1" xmlns="http://www.w3.org/2000/svg" width="56" height="32" viewBox="0 0 56 32">
<title>logo</title>
<path fill="#fff" d="M5.451 31.2c-1.003 0-1.925-0.243-2.766-0.729-0.814-0.513-1.464-1.175-1.953-1.986s-0.732-1.715-0.732-2.715v-12.642c0-1 0.244-1.904 0.732-2.715s1.139-1.459 1.953-1.945c0.841-0.513 1.763-0.77 2.766-0.77h13.708v-7.699h4.841v31.2h-18.549zM5.654 26.378h12.732c0.217 0 0.393-0.068 0.529-0.203 0.163-0.162 0.244-0.351 0.244-0.567v-12.318c0-0.216-0.081-0.392-0.244-0.527-0.136-0.162-0.312-0.243-0.529-0.243h-12.732c-0.217 0-0.407 0.081-0.569 0.243-0.136 0.135-0.203 0.311-0.203 0.527v12.318c0 0.216 0.068 0.405 0.203 0.567 0.163 0.135 0.353 0.203 0.569 0.203z"></path>
<path fill="#fff" d="M55.2 28.089l-9.778-8.889 9.778-8.889-3.422-3.111-9.778 8.889-9.778-8.889-3.422 3.111 9.778 8.889-9.778 8.889 3.422 3.111 9.778-8.889 9.778 8.889 3.422-3.111z"></path>
</svg>
