<!-- Generated by IcoMoon.io -->
<svg version="1.1" xmlns="http://www.w3.org/2000/svg" width="33" height="32" viewBox="0 0 33 32">
<title>telegram_icon</title>
<path fill="#fff" d="M14.979 0.039c-5.007 0.521-9.396 3.245-12.062 7.489-3.781 6.019-3.067 14.009 1.716 19.216 2.659 2.893 5.951 4.614 9.906 5.178 0.744 0.106 3.202 0.104 3.974-0.003 3.895-0.54 7.185-2.257 9.839-5.135 2.182-2.367 3.582-5.399 4.067-8.807 0.105-0.737 0.105-3.209 0-3.945-0.442-3.103-1.642-5.909-3.484-8.141-2.615-3.169-6.148-5.167-10.203-5.767-0.768-0.114-2.99-0.163-3.755-0.084zM23.65 9.838c0.366 0.351 0.37 0.591 0.055 2.941-0.281 2.092-1.255 7.988-1.598 9.675-0.127 0.626-0.369 1.15-0.638 1.387-0.213 0.187-0.236 0.193-0.695 0.165-0.324-0.019-0.561-0.073-0.747-0.169-0.425-0.218-5.269-3.503-5.54-3.756-0.293-0.274-0.432-0.572-0.376-0.806 0.078-0.326 0.465-0.754 1.853-2.051 1.704-1.592 3.518-3.364 3.651-3.567 0.131-0.2 0.028-0.409-0.203-0.409-0.21 0-0.074-0.086-3.901 2.465-1.807 1.204-3.441 2.267-3.63 2.361-0.564 0.279-0.963 0.334-1.618 0.22-0.551-0.095-2.259-0.584-2.967-0.85-0.747-0.28-0.939-0.658-0.531-1.046 0.265-0.252 0.305-0.271 3.119-1.494 7.545-3.278 11.349-4.847 12.6-5.197 0.493-0.138 0.939-0.088 1.167 0.13z"></path>
</svg>
